<svg width="47" height="46" viewBox="0 0 47 46" fill="none" xmlns="http://www.w3.org/2000/svg">
<g clip-path="url(#clip0_36_4071)">
<path d="M31.4175 26.8333H15.5825C13.0088 26.8363 10.5415 27.8383 8.72168 29.6194C6.90185 31.4005 5.87811 33.8153 5.875 36.3342V45.9999H41.125V36.3342C41.1219 33.8153 40.0981 31.4005 38.2783 29.6194C36.4585 27.8383 33.9912 26.8363 31.4175 26.8333Z" fill="#FF5F92"/>
<path d="M23.5 23C29.9893 23 35.25 17.8513 35.25 11.5C35.25 5.14873 29.9893 0 23.5 0C17.0107 0 11.75 5.14873 11.75 11.5C11.75 17.8513 17.0107 23 23.5 23Z" fill="#FF5F92"/>
</g>
<defs>
<clipPath id="clip0_36_4071">
<rect width="47" height="46" fill="white"/>
</clipPath>
</defs>
</svg>
