<svg width="26" height="26" viewBox="0 0 26 26" fill="none" xmlns="http://www.w3.org/2000/svg">
<path d="M25.8061 12.1128C24.8549 10.0328 21.125 3.25 13 3.25C4.87498 3.25 1.14507 10.0328 0.193899 12.1128C0.0662157 12.3915 0.00012207 12.6945 0.00012207 13.0011C0.00012207 13.3077 0.0662157 13.6107 0.193899 13.8894C1.14507 15.9673 4.87498 22.75 13 22.75C21.125 22.75 24.8549 15.9673 25.8061 13.8873C25.9335 13.6088 25.9995 13.3062 25.9995 13C25.9995 12.6938 25.9335 12.3912 25.8061 12.1128ZM13 19.5C11.7144 19.5 10.4577 19.1188 9.38878 18.4046C8.31986 17.6903 7.48674 16.6752 6.99477 15.4874C6.5028 14.2997 6.37407 12.9928 6.62488 11.7319C6.87568 10.471 7.49475 9.31285 8.40379 8.40381C9.31283 7.49476 10.471 6.8757 11.7319 6.6249C12.9928 6.37409 14.2997 6.50281 15.4874 6.99478C16.6751 7.48675 17.6903 8.31987 18.4045 9.38879C19.1188 10.4577 19.5 11.7144 19.5 13C19.4983 14.7234 18.8129 16.3757 17.5943 17.5943C16.3757 18.8129 14.7234 19.4983 13 19.5Z" fill="black" fill-opacity="0.5"/>
<path d="M13 17.3333C15.3933 17.3333 17.3334 15.3932 17.3334 13C17.3334 10.6067 15.3933 8.66663 13 8.66663C10.6068 8.66663 8.66669 10.6067 8.66669 13C8.66669 15.3932 10.6068 17.3333 13 17.3333Z" fill="black" fill-opacity="0.5"/>
</svg>
